# xmcd
#
# Track frame offsets:
#	150
#	13930
#	29744
#	47394
#	62943
#	81267
#	97975
#	113853
#	130497
#	147697
#	163770
#	176948
#	192212
#	208220
#	218917
#
# Disc length: 3116 seconds
#
# Revision: 1
# Processed by: cddbd v1.5.2PL0 Copyright (c) Steve Scherf et al.
# Submitted via: audiograbber 1.83.01
#
DISCID=ec0c2a0f
DTITLE=Compilaton - CB60286
DYEAR=1998
DGENRE=Country
TTITLE0=McDaniel, Mel - Baby's Got Her Blue Jeans On
TTITLE1=McDowell, Fonnie - Personally
TTITLE2=Harris, Emmylou - Once More
TTITLE3=Twitty, Conway - Georgia Keeps Pullin' On My Ring
TTITLE4=Milsap, Ronnie - Lost InThe Fifties
TTITLE5=Greenwood, Lee - Fool's Gold
TTITLE6=Fricke, Janie - Let's Stop Talkin' About It
TTITLE7=Alabama - Can't Keep A Good Man Down
TTITLE8=Rogers, Kenny - Crazy
TTITLE9=McClain, Charly - Radio Heart
TTITLE10=Sheppard T.G. - One Owner Heart
TTITLE11=Newton, Juice - Love's Been A Little Bit hard On Me
TTITLE12=Strait, George - You Look So Good In Love
TTITLE13=Mandrell, Barbara - Satisfied
TTITLE14=Jones, George - Who's Gonna Fill Their Shoes
EXTD=
EXTT0=
EXTT1=
EXTT2=
EXTT3=
EXTT4=
EXTT5=
EXTT6=
EXTT7=
EXTT8=
EXTT9=
EXTT10=
EXTT11=
EXTT12=
EXTT13=
EXTT14=
PLAYORDER=
